<svg xmlns="http://www.w3.org/2000/svg" xmlns:xlink="http://www.w3.org/1999/xlink" version="1.1" width="256" height="256" viewBox="0 0 256 256" xml:space="preserve">

<defs>
</defs>
<g style="stroke: none; stroke-width: 0; stroke-dasharray: none; stroke-linecap: butt; stroke-linejoin: miter; stroke-miterlimit: 10; fill: none; fill-rule: nonzero; opacity: 1;" transform="translate(1.4065934065934016 1.4065934065934016) scale(2.81 2.81)" >
	<path d="M 55.538 65.654 c -4.612 0 -8.948 -1.797 -12.209 -5.059 c -6.732 -6.732 -6.732 -17.687 0 -24.419 c 3.261 -3.262 7.598 -5.058 12.209 -5.058 c 4.612 0 8.949 1.796 12.21 5.058 l 0 0 c 6.732 6.732 6.732 17.687 0 24.419 C 64.487 63.857 60.15 65.654 55.538 65.654 z M 55.538 33.119 c -4.077 0 -7.911 1.588 -10.795 4.472 c -5.953 5.953 -5.953 15.638 0 21.591 c 2.884 2.884 6.718 4.473 10.795 4.473 c 4.078 0 7.912 -1.589 10.796 -4.473 c 5.952 -5.953 5.952 -15.638 0 -21.591 l 0 0 C 63.45 34.707 59.616 33.119 55.538 33.119 z" style="stroke: none; stroke-width: 1; stroke-dasharray: none; stroke-linecap: butt; stroke-linejoin: miter; stroke-miterlimit: 10; fill: rgb(0,0,0); fill-rule: nonzero; opacity: 1;" transform=" matrix(1 0 0 1 0 0) " stroke-linecap="round" />
	<path d="M 71.681 65.528 c -0.256 0 -0.512 -0.098 -0.707 -0.293 l -4.64 -4.64 c -0.391 -0.391 -0.391 -1.023 0 -1.414 s 1.023 -0.391 1.414 0 l 4.64 4.64 c 0.391 0.391 0.391 1.023 0 1.414 C 72.192 65.431 71.937 65.528 71.681 65.528 z" style="stroke: none; stroke-width: 1; stroke-dasharray: none; stroke-linecap: butt; stroke-linejoin: miter; stroke-miterlimit: 10; fill: rgb(0,0,0); fill-rule: nonzero; opacity: 1;" transform=" matrix(1 0 0 1 0 0) " stroke-linecap="round" />
	<path d="M 85.856 82.846 c -1.061 0 -2.122 -0.404 -2.93 -1.212 L 70.974 69.681 c -1.615 -1.615 -1.615 -4.244 0 -5.859 s 4.244 -1.615 5.859 0 l 11.953 11.953 c 1.615 1.615 1.615 4.244 0 5.859 C 87.979 82.441 86.917 82.846 85.856 82.846 z M 73.903 64.608 c -0.549 0 -1.098 0.209 -1.516 0.627 c -0.836 0.836 -0.836 2.195 0 3.031 L 84.341 80.22 c 0.836 0.836 2.195 0.836 3.031 0 s 0.836 -2.195 0 -3.031 L 75.419 65.235 C 75.001 64.817 74.452 64.608 73.903 64.608 z" style="stroke: none; stroke-width: 1; stroke-dasharray: none; stroke-linecap: butt; stroke-linejoin: miter; stroke-miterlimit: 10; fill: rgb(0,0,0); fill-rule: nonzero; opacity: 1;" transform=" matrix(1 0 0 1 0 0) " stroke-linecap="round" />
	<path d="M 89 23.321 H 1 c -0.552 0 -1 -0.448 -1 -1 V 8.152 c 0 -0.552 0.448 -1 1 -1 h 88 c 0.553 0 1 0.448 1 1 v 14.168 C 90 22.873 89.553 23.321 89 23.321 z M 2 21.321 h 86 V 9.152 H 2 V 21.321 z" style="stroke: none; stroke-width: 1; stroke-dasharray: none; stroke-linecap: butt; stroke-linejoin: miter; stroke-miterlimit: 10; fill: rgb(0,0,0); fill-rule: nonzero; opacity: 1;" transform=" matrix(1 0 0 1 0 0) " stroke-linecap="round" />
	<path d="M 83.091 16.236 h -4.044 c -0.553 0 -1 -0.448 -1 -1 s 0.447 -1 1 -1 h 4.044 c 0.553 0 1 0.448 1 1 S 83.644 16.236 83.091 16.236 z" style="stroke: none; stroke-width: 1; stroke-dasharray: none; stroke-linecap: butt; stroke-linejoin: miter; stroke-miterlimit: 10; fill: rgb(0,0,0); fill-rule: nonzero; opacity: 1;" transform=" matrix(1 0 0 1 0 0) " stroke-linecap="round" />
	<path d="M 32.008 34.537 H 8.382 c -0.552 0 -1 -0.448 -1 -1 s 0.448 -1 1 -1 h 23.626 c 0.552 0 1 0.448 1 1 S 32.56 34.537 32.008 34.537 z" style="stroke: none; stroke-width: 1; stroke-dasharray: none; stroke-linecap: butt; stroke-linejoin: miter; stroke-miterlimit: 10; fill: rgb(0,0,0); fill-rule: nonzero; opacity: 1;" transform=" matrix(1 0 0 1 0 0) " stroke-linecap="round" />
	<path d="M 27.089 46.832 H 8.382 c -0.552 0 -1 -0.447 -1 -1 s 0.448 -1 1 -1 h 18.708 c 0.552 0 1 0.448 1 1 S 27.642 46.832 27.089 46.832 z" style="stroke: none; stroke-width: 1; stroke-dasharray: none; stroke-linecap: butt; stroke-linejoin: miter; stroke-miterlimit: 10; fill: rgb(0,0,0); fill-rule: nonzero; opacity: 1;" transform=" matrix(1 0 0 1 0 0) " stroke-linecap="round" />
	<path d="M 28.319 59.128 H 8.382 c -0.552 0 -1 -0.447 -1 -1 s 0.448 -1 1 -1 h 19.938 c 0.552 0 1 0.447 1 1 S 28.872 59.128 28.319 59.128 z" style="stroke: none; stroke-width: 1; stroke-dasharray: none; stroke-linecap: butt; stroke-linejoin: miter; stroke-miterlimit: 10; fill: rgb(0,0,0); fill-rule: nonzero; opacity: 1;" transform=" matrix(1 0 0 1 0 0) " stroke-linecap="round" />
	<path d="M 38.156 71.425 H 8.382 c -0.552 0 -1 -0.447 -1 -1 s 0.448 -1 1 -1 h 29.774 c 0.552 0 1 0.447 1 1 S 38.708 71.425 38.156 71.425 z" style="stroke: none; stroke-width: 1; stroke-dasharray: none; stroke-linecap: butt; stroke-linejoin: miter; stroke-miterlimit: 10; fill: rgb(0,0,0); fill-rule: nonzero; opacity: 1;" transform=" matrix(1 0 0 1 0 0) " stroke-linecap="round" />
	<path d="M 73.763 82.804 H 1 c -0.552 0 -1 -0.447 -1 -1 V 8.152 c 0 -0.552 0.448 -1 1 -1 h 88 c 0.553 0 1 0.448 1 1 v 58.415 c 0 0.553 -0.447 1 -1 1 s -1 -0.447 -1 -1 V 9.152 H 2 v 71.651 h 71.763 c 0.553 0 1 0.447 1 1 S 74.315 82.804 73.763 82.804 z" style="stroke: none; stroke-width: 1; stroke-dasharray: none; stroke-linecap: butt; stroke-linejoin: miter; stroke-miterlimit: 10; fill: rgb(0,0,0); fill-rule: nonzero; opacity: 1;" transform=" matrix(1 0 0 1 0 0) " stroke-linecap="round" />
</g>
</svg>